<svg width="392" height="77" viewBox="0 0 392 77" fill="none" xmlns="http://www.w3.org/2000/svg">
<path d="M1.28516 70.7207C1.67448 69.9421 2.07878 69.0736 2.49805 68.1152C2.91732 67.127 3.30664 66.0638 3.66602 64.9258L4.87891 61.9609C4.33984 61.1523 3.78581 60.2839 3.2168 59.3555C2.67773 58.3971 2.18359 57.4238 1.73438 56.4355C1.28516 55.4473 0.910807 54.459 0.611328 53.4707C0.341797 52.4824 0.207031 51.5241 0.207031 50.5957C0.207031 50.5358 0.431641 50.4909 0.880859 50.4609C1.36003 50.401 1.94401 50.3561 2.63281 50.3262C3.35156 50.2962 4.11523 50.2812 4.92383 50.2812C5.76237 50.2513 6.52604 50.2363 7.21484 50.2363C7.93359 50.2064 8.51758 50.1914 8.9668 50.1914C9.44596 50.1615 9.68555 50.1465 9.68555 50.1465C10.3743 48.3496 11.0482 46.6426 11.707 45.0254C12.3659 43.4082 13.0247 41.776 13.6836 40.1289C14.3424 38.4818 15.0013 36.8047 15.6602 35.0977C16.319 33.3607 16.9779 31.5039 17.6367 29.5273C18.8945 25.8138 20.1224 22.5495 21.3203 19.7344C22.5182 16.9193 23.6413 14.2988 24.6895 11.873C24.8092 11.5736 25.0039 11.304 25.2734 11.0645C25.5729 10.7949 25.8874 10.5703 26.2168 10.3906C26.5462 10.2109 26.8607 10.0612 27.1602 9.94141C27.4896 9.82161 27.7441 9.73177 27.9238 9.67188C28.0436 9.64193 28.4928 9.50716 29.2715 9.26758C30.0801 9.02799 30.9935 8.77344 32.0117 8.50391C33.0299 8.23438 34.0332 7.99479 35.0215 7.78516C36.0397 7.57552 36.8483 7.4707 37.4473 7.4707H38.2559C38.735 7.4707 39.1842 7.59049 39.6035 7.83008C40.0527 8.03971 40.3522 8.47396 40.502 9.13281C41.9395 12.8164 43.4668 16.8444 45.084 21.2168C46.7311 25.5592 48.3333 30.3509 49.8906 35.5918C50.7292 38.4069 51.5527 41.0723 52.3613 43.5879C53.1699 46.1035 53.9785 48.5592 54.7871 50.9551C55.5957 53.3509 56.4043 55.7467 57.2129 58.1426C58.0514 60.5384 58.9049 63.0091 59.7734 65.5547C60.043 66.6328 60.3125 67.4863 60.582 68.1152C60.8815 68.7441 61.151 69.2383 61.3906 69.5977C61.6302 69.957 61.8249 70.2266 61.9746 70.4062C62.1243 70.556 62.1992 70.7207 62.1992 70.9004C62.1992 71.0801 61.9147 71.2598 61.3457 71.4395L51.6875 74.584C50.9688 74.8535 50.235 75.123 49.4863 75.3926C48.7376 75.6621 48.0339 75.9017 47.375 76.1113C46.7161 76.321 46.1322 76.4857 45.623 76.6055C45.1439 76.7552 44.7995 76.8301 44.5898 76.8301H44.3203C43.901 76.8301 43.6016 76.6953 43.4219 76.4258C43.2422 76.1862 43.1224 75.9466 43.0625 75.707C42.763 74.7188 42.4635 73.8353 42.1641 73.0566C41.8646 72.248 41.5651 71.4544 41.2656 70.6758C40.9961 69.8672 40.7116 69.0137 40.4121 68.1152C40.1426 67.2168 39.873 66.1536 39.6035 64.9258C39.5436 64.776 39.3789 64.6562 39.1094 64.5664C38.8398 64.4466 38.5104 64.3568 38.1211 64.2969C37.7617 64.237 37.3724 64.207 36.9531 64.207C36.5339 64.1771 36.1445 64.1621 35.7852 64.1621C34.6471 64.1621 33.7188 64.1771 33 64.207C32.3112 64.207 31.6973 64.222 31.1582 64.252C30.6191 64.252 30.0951 64.2669 29.5859 64.2969C29.1068 64.2969 28.5078 64.2969 27.7891 64.2969C26.9206 64.2969 26.0221 64.2969 25.0938 64.2969C24.1953 64.2669 23.3717 64.237 22.623 64.207L20.0625 64.1172C19.2839 66.2734 18.5052 68.2949 17.7266 70.1816C16.9479 72.0684 16.1094 74.015 15.2109 76.0215C15.151 76.2611 15.0013 76.4557 14.7617 76.6055C14.5521 76.7552 14.3275 76.8301 14.0879 76.8301C13.9082 76.8301 13.8034 76.8151 13.7734 76.7852C10.8685 75.737 8.42773 74.7038 6.45117 73.6855C4.47461 72.6673 2.7526 71.679 1.28516 70.7207ZM31.5625 30.3359C30.8438 33.0013 30.125 35.4271 29.4062 37.6133C28.7174 39.7695 28.0736 41.6862 27.4746 43.3633C26.9056 45.0404 26.4115 46.4629 25.9922 47.6309C25.5729 48.7689 25.2734 49.6523 25.0938 50.2812V50.6855C25.0938 50.8652 25.0788 50.985 25.0488 51.0449H35.8301C35.5007 49.5775 35.1413 48.0951 34.752 46.5977C34.3926 45.1003 34.0332 43.528 33.6738 41.8809C33.3145 40.2337 32.9551 38.4668 32.5957 36.5801C32.2363 34.6934 31.8919 32.612 31.5625 30.3359ZM67.0957 54.9531C67.485 50.8503 67.8743 46.7923 68.2637 42.7793C68.653 38.7663 68.9974 34.6484 69.2969 30.4258C69.3568 29.4375 69.4466 28.7637 69.5664 28.4043C69.7161 28.015 70.0605 27.7604 70.5996 27.6406C73.1452 27.1315 75.8105 26.6074 78.5957 26.0684C81.3809 25.4993 84.0762 24.7806 86.6816 23.9121C86.7715 23.8822 86.9062 23.8672 87.0859 23.8672C87.4154 23.8672 87.5801 23.987 87.5801 24.2266L83.5371 67.9805C83.4473 68.9688 83.3424 69.6576 83.2227 70.0469C83.1029 70.4062 82.7734 70.6458 82.2344 70.7656C79.6888 71.5443 77.1133 72.4128 74.5078 73.3711C71.9023 74.3294 69.1471 75.3027 66.2422 76.291C66.1523 76.321 66.0176 76.3359 65.8379 76.3359C65.5085 76.3359 65.3438 76.1862 65.3438 75.8867C65.3438 75.8568 65.3737 75.4525 65.4336 74.6738C65.4935 73.8952 65.5684 72.8919 65.6582 71.6641C65.778 70.4362 65.8978 69.0586 66.0176 67.5312C66.1374 66.0039 66.2572 64.4766 66.377 62.9492C66.5267 61.4219 66.6615 59.9544 66.7812 58.5469C66.901 57.1393 67.0059 55.9414 67.0957 54.9531ZM70.4648 19.1055C70.5547 17.8177 70.6146 16.8294 70.6445 16.1406C70.7044 15.4518 70.7493 14.9427 70.7793 14.6133C70.8092 14.2539 70.8242 14.0293 70.8242 13.9395C70.8242 13.8496 70.8242 13.7897 70.8242 13.7598C70.8542 13.6999 70.8691 13.61 70.8691 13.4902C70.8991 13.3405 70.929 13.056 70.959 12.6367C70.9889 12.1875 71.0339 11.5436 71.0938 10.7051C71.1536 9.86654 71.2435 8.71354 71.3633 7.24609C71.4232 6.25781 71.513 5.58398 71.6328 5.22461C71.7826 4.83529 72.127 4.58073 72.666 4.46094C75.2116 3.95182 77.877 3.42773 80.6621 2.88867C83.4473 2.31966 86.1426 1.60091 88.748 0.732422C88.8379 0.702474 88.9727 0.6875 89.1523 0.6875C89.2422 0.867188 89.362 0.986979 89.5117 1.04688L89.6465 1.13672L88.6582 13.4453C88.5684 14.4336 88.4486 15.1224 88.2988 15.5117C88.179 15.901 87.8646 16.1406 87.3555 16.2305C84.8099 16.7096 82.2344 17.2337 79.6289 17.8027C77.0234 18.3717 74.2682 18.9408 71.3633 19.5098C71.2734 19.5397 71.1387 19.5547 70.959 19.5547C70.6296 19.5547 70.4648 19.4049 70.4648 19.1055ZM130.166 37.4336C129.537 37.3737 128.833 37.3138 128.055 37.2539C127.276 37.1641 126.452 37.1191 125.584 37.1191C124.266 37.1191 122.919 37.2389 121.541 37.4785C120.193 37.6882 118.936 38.1224 117.768 38.7812C116.6 39.4401 115.596 40.3535 114.758 41.5215C113.919 42.6595 113.38 44.1419 113.141 45.9688C112.931 48.1849 112.751 50.0117 112.602 51.4492C112.482 52.8568 112.392 54.0247 112.332 54.9531C112.272 55.8516 112.212 56.5853 112.152 57.1543C112.122 57.6934 112.092 58.2025 112.062 58.6816C112.062 58.8014 112.033 59.1309 111.973 59.6699C111.943 60.209 111.883 60.8379 111.793 61.5566C111.703 62.2754 111.613 63.054 111.523 63.8926C111.464 64.7311 111.389 65.5098 111.299 66.2285C111.209 66.9473 111.134 67.5762 111.074 68.1152C111.044 68.6543 111.029 68.9837 111.029 69.1035C111.029 69.3431 111.029 69.5527 111.029 69.7324C111.059 69.8822 111.074 70.0319 111.074 70.1816C111.074 70.4212 110.954 70.6309 110.715 70.8105C110.505 70.9603 110.011 71.14 109.232 71.3496L97.3281 75.6172C96.9987 75.737 96.5645 75.8867 96.0254 76.0664C95.4863 76.2461 94.9622 76.3359 94.4531 76.3359C94.0339 76.3359 93.6595 76.2311 93.3301 76.0215C93.0306 75.8118 92.8809 75.4525 92.8809 74.9434L96.7441 30.4258C96.834 29.4375 96.9388 28.7637 97.0586 28.4043C97.2083 28.015 97.5527 27.7604 98.0918 27.6406C100.817 27.1016 103.632 26.5625 106.537 26.0234C109.442 25.4544 112.257 24.7357 114.982 23.8672C115.222 23.8672 115.357 23.9121 115.387 24.002C115.447 24.0618 115.477 24.1667 115.477 24.3164C115.477 24.3763 115.462 24.4661 115.432 24.5859C115.432 24.7057 115.387 24.9753 115.297 25.3945C115.237 25.8138 115.132 26.4577 114.982 27.3262C114.863 28.1647 114.683 29.3477 114.443 30.875C115.821 29.7969 117.333 28.8086 118.98 27.9102C120.658 27.0117 122.335 26.248 124.012 25.6191C125.689 24.9603 127.306 24.4512 128.863 24.0918C130.421 23.7025 131.783 23.5078 132.951 23.5078L130.166 37.4336ZM135.736 57.2891C135.736 57.2591 135.721 57.2292 135.691 57.1992C135.691 57.1693 135.691 57.1393 135.691 57.1094C135.691 56.6003 135.961 56.3457 136.5 56.3457C136.77 56.3457 137.069 56.4805 137.398 56.75C139.016 58.2773 140.812 59.4902 142.789 60.3887C144.766 61.2871 146.922 61.7363 149.258 61.7363C149.887 61.7363 150.605 61.6764 151.414 61.5566C152.223 61.4069 152.986 61.1823 153.705 60.8828C154.424 60.5534 155.023 60.1341 155.502 59.625C156.011 59.1159 156.266 58.472 156.266 57.6934C156.266 56.8249 156.056 56.0462 155.637 55.3574C155.217 54.6686 154.663 54.0846 153.975 53.6055C153.705 53.4258 153.301 53.1263 152.762 52.707C152.223 52.2878 151.609 51.8086 150.92 51.2695C150.231 50.7305 149.512 50.1615 148.764 49.5625C148.015 48.9336 147.296 48.3496 146.607 47.8105C145.949 47.2415 145.35 46.7324 144.811 46.2832C144.271 45.834 143.867 45.4896 143.598 45.25C141.831 43.9323 140.423 42.5996 139.375 41.252C138.357 39.9043 137.578 38.4967 137.039 37.0293C136.5 35.5618 136.156 34.0495 136.006 32.4922C135.856 30.9049 135.781 29.2279 135.781 27.4609C135.781 24.8255 136.41 22.3249 137.668 19.959C138.926 17.5931 140.693 15.5417 142.969 13.8047C145.275 12.0378 148.03 10.6452 151.234 9.62695C154.439 8.57878 158.003 8.05469 161.926 8.05469C162.405 8.05469 163.124 8.11458 164.082 8.23438C165.04 8.32422 166.089 8.48893 167.227 8.72852C168.395 8.9681 169.577 9.29753 170.775 9.7168C171.973 10.1361 173.066 10.6751 174.055 11.334C174.384 11.5736 174.639 11.8132 174.818 12.0527C175.028 12.2923 175.163 12.6667 175.223 13.1758C175.372 15.6016 175.492 17.9974 175.582 20.3633C175.672 22.6992 175.792 25.1849 175.941 27.8203C175.941 28.3294 175.837 28.6738 175.627 28.8535C175.417 29.0033 175.148 29.0781 174.818 29.0781C174.489 29.0781 174.234 28.9883 174.055 28.8086C173.186 27.9401 172.288 27.0866 171.359 26.248C170.431 25.4095 169.458 24.6758 168.439 24.0469C167.421 23.388 166.328 22.8639 165.16 22.4746C164.022 22.0853 162.779 21.8906 161.432 21.8906C160.623 21.8906 159.814 21.9655 159.006 22.1152C158.197 22.235 157.464 22.4746 156.805 22.834C156.146 23.1934 155.607 23.6875 155.188 24.3164C154.798 24.9453 154.604 25.7389 154.604 26.6973C154.604 27.7155 154.723 28.599 154.963 29.3477C155.232 30.0964 155.876 30.8001 156.895 31.459L167.676 38.7812C169.652 40.1888 171.255 41.5964 172.482 43.0039C173.71 44.3815 174.669 45.7591 175.357 47.1367C176.046 48.5143 176.51 49.877 176.75 51.2246C177.02 52.5423 177.154 53.8451 177.154 55.1328C177.154 57.2292 176.81 59.2057 176.121 61.0625C175.432 62.9193 174.489 64.6413 173.291 66.2285C172.093 67.7858 170.686 69.1934 169.068 70.4512C167.481 71.679 165.774 72.7422 163.947 73.6406C162.12 74.5091 160.219 75.168 158.242 75.6172C156.296 76.0964 154.379 76.3359 152.492 76.3359C151.025 76.3359 149.572 76.306 148.135 76.2461C146.727 76.2161 145.35 76.0964 144.002 75.8867C142.654 75.707 141.352 75.4076 140.094 74.9883C138.836 74.599 137.638 74.0449 136.5 73.3262L135.736 57.2891ZM204.961 39.3652C204.542 42.5098 204.137 45.6543 203.748 48.7988C203.389 51.9134 203.164 54.8333 203.074 57.5586C203.074 58.7266 203.164 59.6999 203.344 60.4785C203.523 61.2572 203.778 61.8711 204.107 62.3203C204.467 62.7695 204.886 63.099 205.365 63.3086C205.844 63.4883 206.383 63.5781 206.982 63.5781C207.941 63.5781 208.989 63.4434 210.127 63.1738C211.265 62.8743 212.403 62.5 213.541 62.0508C213.9 61.901 214.2 61.7962 214.439 61.7363C214.709 61.6465 214.934 61.6016 215.113 61.6016C215.413 61.6016 215.607 61.7363 215.697 62.0059C215.817 62.2754 215.922 62.7546 216.012 63.4434C216.132 64.1022 216.296 65.0007 216.506 66.1387C216.715 67.2767 217.06 68.7142 217.539 70.4512C217.569 70.6009 217.584 70.7357 217.584 70.8555C217.614 70.9453 217.629 71.0352 217.629 71.125C217.629 71.5443 217.464 71.8438 217.135 72.0234C216.835 72.2031 216.326 72.4128 215.607 72.6523C214.38 73.0716 213.077 73.5059 211.699 73.9551C210.352 74.3743 209.004 74.7637 207.656 75.123C206.339 75.4824 205.066 75.7669 203.838 75.9766C202.61 76.2161 201.532 76.3359 200.604 76.3359C195.602 76.3359 191.949 75.0931 189.643 72.6074C187.367 70.1217 186.229 66.3333 186.229 61.2422C186.229 60.3737 186.258 59.4902 186.318 58.5918C186.378 57.6634 186.453 56.7051 186.543 55.7168C186.842 52.722 187.097 49.8919 187.307 47.2266C187.546 44.5312 187.786 41.9557 188.025 39.5H183.309C181.691 39.5 180.523 39.4401 179.805 39.3203C179.086 39.1706 178.727 38.8861 178.727 38.4668C178.727 38.347 178.876 38.0326 179.176 37.5234C179.475 36.9844 179.85 36.3555 180.299 35.6367C180.778 34.888 181.287 34.0944 181.826 33.2559C182.365 32.4173 182.874 31.6387 183.354 30.9199C183.863 30.1712 184.297 29.5273 184.656 28.9883C185.016 28.4492 185.24 28.1198 185.33 28H188.52C188.789 25.724 188.999 23.8223 189.148 22.2949C189.328 20.7376 189.463 19.4499 189.553 18.4316C189.673 17.4134 189.777 16.6348 189.867 16.0957C189.957 15.5267 190.047 15.1074 190.137 14.8379C190.257 14.5684 190.391 14.4036 190.541 14.3438C190.721 14.2539 190.945 14.179 191.215 14.1191C192.562 13.8496 193.865 13.61 195.123 13.4004C196.381 13.1608 197.639 12.9212 198.896 12.6816C200.154 12.4421 201.427 12.1725 202.715 11.873C204.033 11.5436 205.395 11.1693 206.803 10.75C206.893 10.75 206.952 10.75 206.982 10.75C207.012 10.7201 207.072 10.7051 207.162 10.7051C207.521 10.7051 207.701 10.8249 207.701 11.0645V11.1543C207.551 12.8014 207.312 15.0924 206.982 18.0273C206.683 20.9622 206.339 24.2865 205.949 28H217.988C218.228 28 218.452 28.0898 218.662 28.2695C218.902 28.4193 219.021 28.6888 219.021 29.0781C219.021 29.2279 218.842 29.7669 218.482 30.6953C218.123 31.6237 217.614 32.8366 216.955 34.334L215.338 37.9727C215.128 38.4219 214.904 38.7513 214.664 38.9609C214.454 39.1706 214.005 39.3053 213.316 39.3652H204.961ZM268.121 64.9707C268.091 65.0905 268.076 65.2103 268.076 65.3301C268.076 65.4199 268.076 65.5098 268.076 65.5996C268.076 66.3483 268.196 66.9772 268.436 67.4863C268.675 67.9655 268.93 68.3698 269.199 68.6992C269.499 68.9987 269.768 69.2533 270.008 69.4629C270.247 69.6426 270.367 69.8073 270.367 69.957C270.367 70.3763 269.918 70.7656 269.02 71.125L256.936 76.291C256.906 76.321 256.801 76.3359 256.621 76.3359C256.382 76.3359 256.142 76.1263 255.902 75.707C255.663 75.2878 255.423 74.7487 255.184 74.0898C254.974 73.4609 254.764 72.7871 254.555 72.0684C254.375 71.3197 254.21 70.6309 254.061 70.002C252.174 72.1882 250.137 73.7904 247.951 74.8086C245.765 75.8268 243.594 76.3359 241.438 76.3359C238.922 76.3359 236.466 75.7819 234.07 74.6738C231.674 73.5658 229.548 71.9935 227.691 69.957C225.835 67.8906 224.337 65.4049 223.199 62.5C222.091 59.5951 221.537 56.3307 221.537 52.707C221.537 48.4245 222.151 44.5163 223.379 40.9824C224.637 37.4486 226.329 34.4089 228.455 31.8633C230.581 29.3177 233.052 27.3561 235.867 25.9785C238.712 24.571 241.722 23.8672 244.896 23.8672C247.143 23.8672 249.269 24.3314 251.275 25.2598C253.282 26.1582 255.184 27.3262 256.98 28.7637C257.16 27.8652 257.265 27.1465 257.295 26.6074C257.325 26.0684 257.385 25.6491 257.475 25.3496C257.594 25.0501 257.804 24.8555 258.104 24.7656C258.403 24.6458 258.897 24.556 259.586 24.4961C261.742 24.1966 263.883 23.9271 266.01 23.6875C268.166 23.418 270.412 23.2233 272.748 23.1035L268.121 64.9707ZM254.689 48.0352C254.989 46.3281 255.184 44.7259 255.273 43.2285C255.393 41.7012 255.483 40.3086 255.543 39.0508C255.064 38.6914 254.54 38.3171 253.971 37.9277C253.432 37.5384 252.833 37.179 252.174 36.8496C251.545 36.4902 250.871 36.2057 250.152 35.9961C249.464 35.7865 248.73 35.6816 247.951 35.6816C246.334 35.6816 244.971 36.2057 243.863 37.2539C242.785 38.3021 241.902 39.5898 241.213 41.1172C240.554 42.6445 240.075 44.2617 239.775 45.9688C239.506 47.6758 239.371 49.1882 239.371 50.5059C239.371 55.2376 239.985 58.7116 241.213 60.9277C242.471 63.1139 244.208 64.207 246.424 64.207C247.322 64.207 248.326 63.9525 249.434 63.4434C250.542 62.9342 251.665 62.2305 252.803 61.332L254.689 48.0352ZM302.531 39.3652C302.112 42.5098 301.708 45.6543 301.318 48.7988C300.959 51.9134 300.734 54.8333 300.645 57.5586C300.645 58.7266 300.734 59.6999 300.914 60.4785C301.094 61.2572 301.348 61.8711 301.678 62.3203C302.037 62.7695 302.456 63.099 302.936 63.3086C303.415 63.4883 303.954 63.5781 304.553 63.5781C305.511 63.5781 306.559 63.4434 307.697 63.1738C308.835 62.8743 309.973 62.5 311.111 62.0508C311.471 61.901 311.77 61.7962 312.01 61.7363C312.279 61.6465 312.504 61.6016 312.684 61.6016C312.983 61.6016 313.178 61.7363 313.268 62.0059C313.387 62.2754 313.492 62.7546 313.582 63.4434C313.702 64.1022 313.867 65.0007 314.076 66.1387C314.286 67.2767 314.63 68.7142 315.109 70.4512C315.139 70.6009 315.154 70.7357 315.154 70.8555C315.184 70.9453 315.199 71.0352 315.199 71.125C315.199 71.5443 315.035 71.8438 314.705 72.0234C314.406 72.2031 313.896 72.4128 313.178 72.6523C311.95 73.0716 310.647 73.5059 309.27 73.9551C307.922 74.3743 306.574 74.7637 305.227 75.123C303.909 75.4824 302.636 75.7669 301.408 75.9766C300.18 76.2161 299.102 76.3359 298.174 76.3359C293.173 76.3359 289.519 75.0931 287.213 72.6074C284.937 70.1217 283.799 66.3333 283.799 61.2422C283.799 60.3737 283.829 59.4902 283.889 58.5918C283.949 57.6634 284.023 56.7051 284.113 55.7168C284.413 52.722 284.667 49.8919 284.877 47.2266C285.117 44.5312 285.356 41.9557 285.596 39.5H280.879C279.262 39.5 278.094 39.4401 277.375 39.3203C276.656 39.1706 276.297 38.8861 276.297 38.4668C276.297 38.347 276.447 38.0326 276.746 37.5234C277.046 36.9844 277.42 36.3555 277.869 35.6367C278.348 34.888 278.857 34.0944 279.396 33.2559C279.936 32.4173 280.445 31.6387 280.924 30.9199C281.433 30.1712 281.867 29.5273 282.227 28.9883C282.586 28.4492 282.811 28.1198 282.9 28H286.09C286.359 25.724 286.569 23.8223 286.719 22.2949C286.898 20.7376 287.033 19.4499 287.123 18.4316C287.243 17.4134 287.348 16.6348 287.438 16.0957C287.527 15.5267 287.617 15.1074 287.707 14.8379C287.827 14.5684 287.962 14.4036 288.111 14.3438C288.291 14.2539 288.516 14.179 288.785 14.1191C290.133 13.8496 291.436 13.61 292.693 13.4004C293.951 13.1608 295.209 12.9212 296.467 12.6816C297.725 12.4421 298.997 12.1725 300.285 11.873C301.603 11.5436 302.965 11.1693 304.373 10.75C304.463 10.75 304.523 10.75 304.553 10.75C304.583 10.7201 304.643 10.7051 304.732 10.7051C305.092 10.7051 305.271 10.8249 305.271 11.0645V11.1543C305.122 12.8014 304.882 15.0924 304.553 18.0273C304.253 20.9622 303.909 24.2865 303.52 28H315.559C315.798 28 316.023 28.0898 316.232 28.2695C316.472 28.4193 316.592 28.6888 316.592 29.0781C316.592 29.2279 316.412 29.7669 316.053 30.6953C315.693 31.6237 315.184 32.8366 314.525 34.334L312.908 37.9727C312.699 38.4219 312.474 38.7513 312.234 38.9609C312.025 39.1706 311.576 39.3053 310.887 39.3652H302.531ZM321.443 54.9531C321.833 50.8503 322.222 46.7923 322.611 42.7793C323.001 38.7663 323.345 34.6484 323.645 30.4258C323.704 29.4375 323.794 28.7637 323.914 28.4043C324.064 28.015 324.408 27.7604 324.947 27.6406C327.493 27.1315 330.158 26.6074 332.943 26.0684C335.729 25.4993 338.424 24.7806 341.029 23.9121C341.119 23.8822 341.254 23.8672 341.434 23.8672C341.763 23.8672 341.928 23.987 341.928 24.2266L337.885 67.9805C337.795 68.9688 337.69 69.6576 337.57 70.0469C337.451 70.4062 337.121 70.6458 336.582 70.7656C334.036 71.5443 331.461 72.4128 328.855 73.3711C326.25 74.3294 323.495 75.3027 320.59 76.291C320.5 76.321 320.365 76.3359 320.186 76.3359C319.856 76.3359 319.691 76.1862 319.691 75.8867C319.691 75.8568 319.721 75.4525 319.781 74.6738C319.841 73.8952 319.916 72.8919 320.006 71.6641C320.126 70.4362 320.245 69.0586 320.365 67.5312C320.485 66.0039 320.605 64.4766 320.725 62.9492C320.874 61.4219 321.009 59.9544 321.129 58.5469C321.249 57.1393 321.354 55.9414 321.443 54.9531ZM324.812 19.1055C324.902 17.8177 324.962 16.8294 324.992 16.1406C325.052 15.4518 325.097 14.9427 325.127 14.6133C325.157 14.2539 325.172 14.0293 325.172 13.9395C325.172 13.8496 325.172 13.7897 325.172 13.7598C325.202 13.6999 325.217 13.61 325.217 13.4902C325.247 13.3405 325.277 13.056 325.307 12.6367C325.337 12.1875 325.382 11.5436 325.441 10.7051C325.501 9.86654 325.591 8.71354 325.711 7.24609C325.771 6.25781 325.861 5.58398 325.98 5.22461C326.13 4.83529 326.475 4.58073 327.014 4.46094C329.559 3.95182 332.225 3.42773 335.01 2.88867C337.795 2.31966 340.49 1.60091 343.096 0.732422C343.186 0.702474 343.32 0.6875 343.5 0.6875C343.59 0.867188 343.71 0.986979 343.859 1.04688L343.994 1.13672L343.006 13.4453C342.916 14.4336 342.796 15.1224 342.646 15.5117C342.527 15.901 342.212 16.1406 341.703 16.2305C339.158 16.7096 336.582 17.2337 333.977 17.8027C331.371 18.3717 328.616 18.9408 325.711 19.5098C325.621 19.5397 325.486 19.5547 325.307 19.5547C324.977 19.5547 324.812 19.4049 324.812 19.1055ZM346.869 52.0781C346.869 48.1549 347.588 44.4863 349.025 41.0723C350.493 37.6283 352.499 34.6335 355.045 32.0879C357.62 29.5423 360.645 27.5358 364.119 26.0684C367.623 24.6009 371.426 23.8672 375.529 23.8672C378.314 23.8672 380.695 24.0918 382.672 24.541C384.648 24.9902 386.266 25.4993 387.523 26.0684C388.781 26.6074 389.695 27.1165 390.264 27.5957C390.863 28.0449 391.162 28.2845 391.162 28.3145C391.162 28.4941 391.087 29.0033 390.938 29.8418C390.818 30.6504 390.668 31.6087 390.488 32.7168C390.339 33.7949 390.189 34.918 390.039 36.0859C389.919 37.224 389.859 38.2122 389.859 39.0508C389.859 39.2005 389.814 39.3652 389.725 39.5449C389.635 39.7246 389.395 39.8145 389.006 39.8145C388.646 39.8145 388.122 39.6947 387.434 39.4551C386.745 39.1855 385.891 38.901 384.873 38.6016C383.885 38.3021 382.732 38.0326 381.414 37.793C380.126 37.5234 378.689 37.3887 377.102 37.3887C375.125 37.3887 373.343 37.748 371.756 38.4668C370.169 39.1556 368.806 40.1289 367.668 41.3867C366.53 42.6146 365.646 44.082 365.018 45.7891C364.419 47.4961 364.119 49.3379 364.119 51.3145C364.119 53.3809 364.434 55.1478 365.062 56.6152C365.721 58.0527 366.59 59.2357 367.668 60.1641C368.746 61.0625 369.989 61.7214 371.396 62.1406C372.804 62.5599 374.286 62.7695 375.844 62.7695C377.641 62.7695 379.452 62.5299 381.279 62.0508C383.106 61.5417 384.828 60.8379 386.445 59.9395C386.505 59.9095 386.625 59.8945 386.805 59.8945C386.954 59.8945 387.059 59.9694 387.119 60.1191C387.209 60.2689 387.254 60.5534 387.254 60.9727C387.254 61.931 387.254 63.099 387.254 64.4766C387.254 65.8242 387.239 67.127 387.209 68.3848C387.209 69.6126 387.194 70.6608 387.164 71.5293C387.134 72.3978 387.104 72.832 387.074 72.832C385.996 73.5508 384.828 74.1348 383.57 74.584C382.312 75.0332 381.01 75.3926 379.662 75.6621C378.344 75.9316 377.012 76.1113 375.664 76.2012C374.316 76.291 373.014 76.3359 371.756 76.3359C368.252 76.3359 364.988 75.752 361.963 74.584C358.938 73.416 356.303 71.7689 354.057 69.6426C351.84 67.5163 350.089 64.9707 348.801 62.0059C347.513 59.0111 346.869 55.7018 346.869 52.0781Z" fill="white"/>
</svg>
